<?xml version="1.0" standalone="no"?>
<!DOCTYPE svg PUBLIC "-//W3C//DTD SVG 20010904//EN"
 "http://www.w3.org/TR/2001/REC-SVG-20010904/DTD/svg10.dtd">
<svg version="1.0" xmlns="http://www.w3.org/2000/svg"
 width="32.000000pt" height="32.000000pt" viewBox="0 0 32.000000 32.000000"
 preserveAspectRatio="xMidYMid meet">
<metadata>
Created by potrace 1.16, written by Peter Selinger 2001-2019
</metadata>
<g transform="translate(0.000000,32.000000) scale(0.100000,-0.100000)"
fill="#000000" stroke="none">
<path d="M113 303 c-24 -5 -63 -47 -63 -69 0 -7 6 -15 13 -17 6 -3 -2 -6 -19
-6 -28 -1 -30 -4 -31 -38 -2 -38 17 -79 53 -121 24 -29 104 -32 104 -4 0 12 5
10 18 -10 16 -27 42 -38 42 -18 0 6 7 10 15 10 18 0 62 68 65 101 4 46 0 60
-26 86 -18 18 -22 29 -15 36 16 16 14 40 -3 34 -8 -3 -20 1 -26 9 -12 14 -75
17 -127 7z"/>
</g>
</svg>
